Coordinates
version=1
nRows=14
nColumns=40
inDegrees=yes

Units are S.I. units (second, meters, Newtons, ...)
If the header above contains a line with 'inDegrees', this indicates whether rotational values are in degrees (yes) or radians (no).

endheader
time	pelvis_tilt	pelvis_list	pelvis_rotation	pelvis_tx	pelvis_ty	pelvis_tz	hip_flexion_r	hip_adduction_r	hip_rotation_r	knee_angle_r	knee_angle_r_beta	ankle_angle_r	subtalar_angle_r	mtp_angle_r	hip_flexion_l	hip_adduction_l	hip_rotation_l	knee_angle_l	knee_angle_l_beta	ankle_angle_l	subtalar_angle_l	mtp_angle_l	lumbar_extension	lumbar_bending	lumbar_rotation	arm_flex_r	arm_add_r	arm_rot_r	elbow_flex_r	pro_sup_r	wrist_flex_r	wrist_dev_r	arm_flex_l	arm_add_l	arm_rot_l	elbow_flex_l	pro_sup_l	wrist_flex_l	wrist_dev_l
      5.79500000	    -34.51405616	      3.91884335	      4.13924148	     -0.45747943	      0.60817202	     -0.90839521	     96.89606947	    -14.25299284	     11.55751432	    108.34916604	      1.89104969	     45.83198912	      0.00000000	      0.00000000	     95.66457298	    -13.39175924	     -1.58709854	    106.76762366	      1.86344657	     43.28587292	      0.00000000	      0.00000000	    -19.85891131	     -4.63764468	     -8.56018195	      1.14751286	    -44.95678490	     63.20694489	     82.42333304	     87.84725759	      0.00000000	      0.00000000	    -23.28727338	    -42.62982694	     36.78772018	     87.91188537	     87.74959470	      0.00000000	      0.00000000
      5.80000000	    -34.51486202	      3.85419961	      4.12493139	     -0.45755710	      0.60816928	     -0.90842775	     96.89164800	    -14.23209983	     11.49229328	    108.32821566	      1.89068404	     45.69813259	      0.00000000	      0.00000000	     95.71707037	    -13.41283446	     -1.53087426	    106.79866288	      1.86398830	     43.32111147	      0.00000000	      0.00000000	    -19.84083981	     -4.56579040	     -9.19269109	      2.59001310	    -44.98345079	     64.94049262	     82.36773149	     87.85870015	      0.00000000	      0.00000000	    -24.51607600	    -42.20433152	     35.33782692	     88.02939144	     87.86499863	      0.00000000	      0.00000000
      5.80500000	    -34.50227445	      3.80885727	      4.12086075	     -0.45761619	      0.60811779	     -0.90841118	     96.86822104	    -14.23821631	     11.42557774	    108.33183983	      1.89074729	     45.79270413	      0.00000000	      0.00000000	     95.73065169	    -13.42880827	     -1.47211534	    106.82164486	      1.86438942	     43.26340369	      0.00000000	      0.00000000	    -19.85886944	     -4.52809386	     -8.98754135	      2.13127527	    -44.98624136	     64.35466553	     82.40653840	     87.83019947	      0.00000000	      0.00000000	    -24.19896528	    -42.35213904	     35.73235923	     88.03584357	     87.81357745	      0.00000000	      0.00000000
      5.81000000	    -34.56250827	      3.82474387	      4.16380005	     -0.45778043	      0.60810184	     -0.90863766	     96.96001099	    -14.29158953	     11.46068023	    108.31866461	      1.89051734	     45.66036431	      0.00000000	      0.00000000	     95.78981600	    -13.35435528	     -1.50081981	    106.78386710	      1.86373007	     43.21504171	      0.00000000	      0.00000000	    -19.81854578	     -4.52215037	     -8.66380567	      1.35782663	    -45.01337877	     63.44777899	     82.50687571	     87.92922757	      0.00000000	      0.00000000	    -23.56092732	    -42.55896967	     36.44231036	     87.98325090	     87.87937901	      0.00000000	      0.00000000
      5.81500000	    -34.43688847	      3.85073824	      4.20543712	     -0.45772647	      0.60836252	     -0.90882587	     96.82358101	    -14.36181583	     11.48850247	    108.31149895	      1.89039227	     45.73663604	      0.00000000	      0.00000000	     95.63165098	    -13.29172924	     -1.54559413	    106.77308492	      1.86354188	     43.24982273	      0.00000000	      0.00000000	    -19.95750158	     -4.51096051	     -9.29171128	      2.73551469	    -45.01204323	     65.15667630	     82.33928990	     87.86606591	      0.00000000	      0.00000000	    -24.47229787	    -42.20204810	     35.38227250	     88.00379363	     87.86583369	      0.00000000	      0.00000000
      5.82000000	    -34.53317201	      3.83353167	      4.26323974	     -0.45797939	      0.60820606	     -0.90899041	     96.94269181	    -14.42169524	     11.48907915	    108.31704904	      1.89048914	     45.71171206	      0.00000000	      0.00000000	     95.74914042	    -13.20741527	     -1.51749474	    106.74513875	      1.86305413	     43.29131372	      0.00000000	      0.00000000	    -19.86510195	     -4.47977880	     -9.12609942	      2.23001687	    -45.02310148	     64.55138785	     82.42308715	     87.85261153	      0.00000000	      0.00000000	    -24.10589223	    -42.35132124	     35.86395175	     87.98236828	     87.83226132	      0.00000000	      0.00000000
      5.82500000	    -34.62374979	      3.74471776	      4.23226625	     -0.45818849	      0.60810803	     -0.90897354	     97.02136850	    -14.36163993	     11.41674121	    108.26786890	      1.88963079	     45.62351704	      0.00000000	      0.00000000	     95.91385618	    -13.23739576	     -1.42986277	    106.76152370	      1.86334010	     43.26513091	      0.00000000	      0.00000000	    -19.76936144	     -4.40029424	     -7.77870473	     -0.51587307	    -45.04751890	     61.26016724	     82.71902666	     87.98668286	      0.00000000	      0.00000000	    -21.71763774	    -43.16508701	     38.72797269	     87.82938274	     87.83240485	      0.00000000	      0.00000000
      5.83000000	    -34.52260823	      3.79863202	      4.25796429	     -0.45819718	      0.60825554	     -0.90907529	     96.92520812	    -14.40614565	     11.46606963	    108.28109286	      1.88986159	     45.74533603	      0.00000000	      0.00000000	     95.77192017	    -13.20654505	     -1.48804877	    106.74269056	      1.86301140	     43.22180562	      0.00000000	      0.00000000	    -19.88603286	     -4.43880163	     -9.36335074	      2.86815703	    -45.04110188	     65.36419467	     82.38601539	     87.86066502	      0.00000000	      0.00000000	    -24.52482264	    -42.18253061	     35.35518432	     88.01648678	     87.87471093	      0.00000000	      0.00000000
      5.83500000	    -34.47693123	      3.79737809	      4.18031000	     -0.45824533	      0.60835708	     -0.90894680	     96.86651492	    -14.31150431	     11.45059486	    108.24699488	      1.88926647	     45.77512323	      0.00000000	      0.00000000	     95.73227100	    -13.28003225	     -1.47958951	    106.75710575	      1.86326300	     43.34970788	      0.00000000	      0.00000000	    -19.93613306	     -4.46319147	     -8.99756474	      2.29217621	    -45.05365215	     64.66941905	     82.46377797	     87.87780447	      0.00000000	      0.00000000	    -23.95728767	    -42.42099554	     36.05720801	     87.99761126	     87.84464574	      0.00000000	      0.00000000
      5.84000000	    -34.50918783	      3.80440512	      4.31333096	     -0.45838405	      0.60840637	     -0.90935315	     96.92044815	    -14.47957483	     11.48874266	    108.24835619	      1.88929023	     45.67934763	      0.00000000	      0.00000000	     95.76048888	    -13.10548101	     -1.50286803	    106.71737791	      1.86256961	     43.32323962	      0.00000000	      0.00000000	    -19.93022859	     -4.41217871	     -8.99797359	      1.98676610	    -45.05255754	     64.27286693	     82.45669635	     87.88576340	      0.00000000	      0.00000000	    -23.72011988	    -42.43193959	     36.30483959	     87.88658139	     87.86800935	      0.00000000	      0.00000000
      5.84500000	    -34.53755642	      3.74497581	      4.29146317	     -0.45857681	      0.60833622	     -0.90934559	     96.94941068	    -14.45084292	     11.42591105	    108.23069871	      1.88898204	     45.67984658	      0.00000000	      0.00000000	     95.83918522	    -13.12816633	     -1.42755633	    106.72751741	      1.86274658	     43.21800007	      0.00000000	      0.00000000	    -19.88801012	     -4.36087436	     -8.83968687	      1.79173077	    -45.09363438	     64.07613159	     82.52196626	     87.89528060	      0.00000000	      0.00000000	    -23.44785915	    -42.53788884	     36.66239454	     87.88514907	     87.87837068	      0.00000000	      0.00000000
      5.85000000	    -34.64520131	      3.73177817	      4.24164570	     -0.45889972	      0.60809049	     -0.90921972	     97.08811187	    -14.35324796	     11.43926792	    108.22642530	      1.88890746	     45.67234406	      0.00000000	      0.00000000	     95.98739707	    -13.17923992	     -1.40331085	    106.72714875	      1.86274015	     43.28439739	      0.00000000	      0.00000000	    -19.77817468	     -4.38109422	     -9.26649012	      2.82277534	    -45.09488114	     65.32872243	     82.44152125	     87.88632843	      0.00000000	      0.00000000	    -24.41202236	    -42.23133165	     35.52635959	     88.01046965	     87.87362256	      0.00000000	      0.00000000
      5.85500000	    -34.70429864	      3.69879440	      4.17631409	     -0.45903013	      0.60802884	     -0.90910813	     97.15816571	    -14.26019340	     11.41832642	    108.22041817	      1.88880262	     45.54281798	      0.00000000	      0.00000000	     96.06480993	    -13.26565512	     -1.37275360	    106.72074081	      1.86262831	     43.18058014	      0.00000000	      0.00000000	    -19.70119999	     -4.37459100	     -8.02771927	      0.31243179	    -45.10760615	     62.32347853	     82.66758300	     87.96234395	      0.00000000	      0.00000000	    -22.23198891	    -43.01715388	     38.16793747	     87.84403974	     87.90371303	      0.00000000	      0.00000000
      5.86000000	    -34.84037899	      3.63403619	      4.10050082	     -0.45950127	      0.60765506	     -0.90892302	     97.33019219	    -14.12594381	     11.36513395	    108.20742407	      1.88857583	     45.61795305	      0.00000000	      0.00000000	     96.30409265	    -13.35062936	     -1.28049532	    106.74529728	      1.86305690	     43.17911867	      0.00000000	      0.00000000	    -19.54407464	     -4.35820923	     -9.10521417	      2.82609220	    -45.13440820	     65.36404729	     82.49405039	     87.90072627	      0.00000000	      0.00000000	    -24.47986231	    -42.26757368	     35.48985939	     88.07421765	     87.90657496	      0.00000000	      0.00000000
